<svg t="1639139248061" class="icon" viewBox="0 0 1024 1024" version="1.1" xmlns="http://www.w3.org/2000/svg" p-id="18799" width="200" height="200"><path d="M487.220951 1023.984919a15.081359 15.081359 0 0 1-7.118402-28.383118c4.629977-2.473343 462.575445-251.979347 489.013068-646.824409C985.297916 106.827148 842.055167 60.783759 797.761216 52.443767 697.590829 33.486499 605.971572 83.390716 546.792319 157.636247a459.63458 459.63458 0 0 1 40.840321 127.301752c9.350443 55.378751-17.373726 77.714243-29.288 84.757238a65.076064 65.076064 0 0 1-72.842964-7.027914c-29.031616-23.089561-37.658154-64.442647-23.074479-110.651931a350.460622 350.460622 0 0 1 49.82881-98.481275c-55.48432-98.270136-143.800759-129.6092-221.620572-122.128846-118.252936 11.522158-241.392233 118.418831-236.717012 293.830119 7.751819 291.07023 417.452019 571.37237 421.584312 574.162421a15.081359 15.081359 0 1 1-16.891122 24.974731A1550.89156 1550.89156 0 0 1 245.165138 742.687409C101.696169 595.523507 27.209337 455.342275 23.770787 326.034702 18.582799 132.37497 155.883492 14.242685 287.69457 1.393367 402.614527-9.902571 482.093289 48.975055 531.213275 129.403943 596.998164 52.579499 695.72074 2.53955 803.3564 22.793815 961.93689 52.70015 1008.508127 211.82357 999.21801 350.798294c-27.568724 411.660777-500.112948 668.858275-504.878658 671.422106a15.051196 15.051196 0 0 1-7.10332 1.7796z m40.357717-839.624504a319.227127 319.227127 0 0 0-36.39132 76.733955c-10.662521 33.812407-5.776161 62.964674 13.075539 77.955545a34.777614 34.777614 0 0 0 38.759092 4.675221c13.829606-8.189178 19.243814-27.764782 14.855139-53.749963a452.591586 452.591586 0 0 0-30.313532-105.614758z" p-id="18800" fill="#d81e06"></path></svg>