<svg id="svg" version="1.1" width="400" height="336" viewBox="0 0 400 336" xmlns="http://www.w3.org/2000/svg" xmlns:xlink="http://www.w3.org/1999/xlink" ><g id="svgg">
		<defs>
<linearGradient id="a">
<stop stop-color="#70ffe5" offset="30%"/>
<stop stop-color="#5685ff" offset="80%"/>
</linearGradient>
</defs>
<path id="path0" d="M338.552 0.354 C 330.093 1.958,323.323 5.840,300.463 22.198 C 267.724 45.625,247.652 56.583,221.558 65.277 C 190.583 75.596,163.503 79.208,109.315 80.247 C 77.187 80.863,69.107 81.310,55.770 83.212 C 9.664 89.785,-7.545 117.527,2.727 168.717 C 13.797 223.875,53.605 279.097,103.105 307.959 C 161.175 341.819,232.365 343.687,293.849 312.965 C 370.947 274.440,409.841 197.174,398.012 106.034 C 395.452 86.308,389.088 62.218,381.733 44.416 C 368.231 11.736,354.174 -2.608,338.552 0.354 " stroke="none" fill="url(#a)"></path></g></svg>