<?xml version="1.0" encoding="UTF-8"?>
<svg version="1.1" viewBox="0 0 400 224" xmlns="http://www.w3.org/2000/svg">
<defs>
<linearGradient id="a" x2="60%" y1="50%" y2="10%">
<stop stop-color="#daec00" offset="0"/>
<stop stop-color="#28f5e9" offset=".8"/>
</linearGradient>
</defs>
<path d="m220.62 0.116c-0.031 0.026-1.534 0.106-3.338 0.177-5.46 0.216-10.796 0.731-19.573 1.893-9.137 1.208-24.301 4.744-38.382 8.95-22.63 6.758-50.676 19.489-70.703 32.094-20.912 13.162-39.387 28.692-51.732 43.486-1.824 2.186-3.597 4.31-3.939 4.72-0.622 0.746-4.192 5.49-5.992 7.963-0.525 0.721-1.073 1.464-1.216 1.65-0.144 0.185-0.601 0.825-1.016 1.421s-0.814 1.133-0.887 1.193c-0.13 0.107-1.4 2.037-3.093 4.702-0.458 0.722-0.934 1.431-1.057 1.577-0.122 0.145-0.223 0.331-0.223 0.413 0 0.083-0.393 0.773-0.875 1.535-0.481 0.762-0.874 1.435-0.874 1.496s-0.387 0.743-0.86 1.515c-0.472 0.772-1.048 1.783-1.28 2.246-0.231 0.462-1.578 3.105-2.992 5.871-1.415 2.767-2.711 5.424-2.88 5.905-0.17 0.481-0.691 1.81-1.159 2.952-1.919 4.683-2.868 7.274-3.806 10.389-1.712 5.692-2.53 8.693-2.861 10.497-0.176 0.962-0.529 2.832-0.783 4.155-1.46 7.595-1.512 18.676-0.118 24.932 0.322 1.443 0.676 3.052 0.786 3.575 0.383 1.813 2.547 6.904 3.826 9 0.257 0.421 0.42 0.913 0.362 1.094-0.058 0.18-0.031 0.259 0.06 0.174 0.174-0.161 0.767 0.322 0.773 0.63 2e-3 0.099 0.273 0.493 0.602 0.877 0.328 0.383 0.811 0.973 1.071 1.312 0.26 0.338 0.679 0.852 0.929 1.141 0.251 0.289 0.456 0.674 0.456 0.856s0.064 0.267 0.143 0.189c0.078-0.078 0.373 0.107 0.656 0.412 0.282 0.305 0.514 0.505 0.514 0.444s0.246 0.135 0.546 0.436c0.301 0.301 0.547 0.657 0.547 0.792s0.065 0.18 0.145 0.101c0.079-0.08 0.518 0.236 0.974 0.702 0.457 0.465 0.884 0.793 0.949 0.728 0.066-0.066 0.119 0.012 0.119 0.172 0 0.161 0.064 0.228 0.143 0.149s0.416 0.142 0.749 0.491c0.333 0.348 0.662 0.577 0.732 0.507 0.069-0.069 0.126-0.011 0.126 0.129s0.074 0.231 0.164 0.201c0.281-0.093 1.804 0.9 1.804 1.177 0 0.144 0.063 0.2 0.139 0.123 0.077-0.077 1.233 0.421 2.57 1.105 1.337 0.685 2.529 1.261 2.649 1.281 0.12 0.019 0.76 0.288 1.422 0.597 2.142 1 6.752 2.425 9.404 2.907 0.421 0.076 0.962 0.18 1.203 0.231 1.089 0.228 1.575 0.319 3.171 0.593 0.421 0.073 1.06 0.183 1.421 0.246 0.763 0.133 1.494 0.232 4.046 0.547 1.023 0.126 2.217 0.278 2.655 0.338 4.408 0.601 7.21 0.702 17.684 0.635 6.074-0.038 11.536-0.123 12.138-0.188 1.446-0.158 7.211-0.533 10.497-0.683 2.809-0.128 4.965-0.307 11.701-0.968 2.345-0.23 5.15-0.479 6.233-0.552 3.152-0.214 10.79-0.966 15.527-1.53 2.406-0.286 5.851-0.633 7.655-0.77 1.804-0.138 3.969-0.338 4.811-0.446s2.023-0.252 2.625-0.32c0.601-0.068 1.831-0.216 2.733-0.328 2.167-0.27 3.464-0.399 5.577-0.554 1.606-0.119 9.312-0.862 11.372-1.097 2.22-0.253 3.135-0.333 7.436-0.65 2.526-0.185 4.987-0.38 5.468-0.433 1.721-0.188 6.165-0.531 8.529-0.658 1.323-0.071 4.423-0.268 6.889-0.438 5.123-0.353 8.594-0.494 16.184-0.656 2.947-0.063 7.08-0.16 9.185-0.216 3.427-0.09 18.771 0.213 21.542 0.426 0.601 0.046 2.225 0.139 3.608 0.205 1.384 0.067 3.893 0.265 5.577 0.439 1.684 0.175 3.997 0.382 5.14 0.459 1.142 0.077 2.619 0.231 3.28 0.341 0.662 0.111 2.876 0.392 4.921 0.625 4.946 0.564 10.621 1.487 19.464 3.165 6.233 1.184 14.234 2.924 26.244 5.709 12.795 2.967 21.689 4.729 30.29 6.001 4.064 0.601 4.96 0.714 7.982 1.009 0.722 0.07 1.706 0.173 2.187 0.229 7.812 0.907 22.07-0.12 27.665-1.992 0.542-0.181 1.617-0.533 2.391-0.781 0.773-0.249 1.778-0.642 2.233-0.874 0.454-0.232 0.943-0.422 1.084-0.422 0.142 0 0.747-0.301 1.345-0.668 0.598-0.368 1.13-0.626 1.183-0.573 0.087 0.087 2.069-1.156 4.73-2.967 1.112-0.757 4.967-4.428 6.375-6.071 0.464-0.541 0.764-0.836 0.667-0.656-0.104 0.195-0.095 0.254 0.023 0.146 0.11-0.1 0.199-0.252 0.199-0.337s0.305-0.544 0.678-1.02c0.373-0.477 0.958-1.309 1.301-1.85 0.342-0.542 0.79-1.181 0.995-1.422 1.469-1.719 5.526-11.612 6.907-16.84 3.924-14.854 3.988-36.724 0.159-55.003-1.799-8.59-6.573-22.878-9.26-27.713-0.119-0.214-0.7-1.373-1.291-2.576-2.738-5.572-5.537-10.211-9.82-16.275-0.389-0.551-0.945-1.347-1.236-1.768-1.841-2.667-6.994-8.941-9.881-12.028-9.866-10.552-19.239-18.864-31.914-28.3-2.406-1.79-4.719-3.515-5.14-3.832s-1.011-0.743-1.312-0.945c-0.301-0.203-1.482-1.011-2.624-1.796-3.742-2.57-5.543-3.76-11.591-7.662-1.459-0.941-8.498-5.199-9.607-5.812-0.34-0.188-1.295-0.743-2.122-1.234-0.826-0.491-2.242-1.282-3.145-1.757-0.903-0.476-2.429-1.29-3.39-1.81-2.139-1.156-8.114-4.151-8.281-4.151-0.067 0-1.415-0.64-2.996-1.422s-2.964-1.422-3.072-1.422-0.663-0.206-1.233-0.459c-0.57-0.252-1.234-0.535-1.474-0.627-0.241-0.093-0.93-0.37-1.531-0.617-2.27-0.932-4.062-1.577-4.376-1.577-0.18 0-0.326-0.087-0.326-0.194s-0.271-0.244-0.602-0.305c-0.33-0.061-2.028-0.599-3.772-1.195-2.938-1.005-5.341-1.75-7.217-2.239-2.351-0.613-4.39-1.116-5.254-1.296-5.071-1.061-6.732-1.365-10.055-1.84-4.775-0.684-7.594-0.966-12.466-1.247-3.59-0.207-11.516-0.423-11.643-0.316" fill="url(#a)"/>
</svg>
