<?xml version="1.0" encoding="UTF-8"?>
<svg version="1.1" viewBox="0 0 399.82 329.89" xmlns="http://www.w3.org/2000/svg">
<defs>
<linearGradient id="a" x2="60%" y1="50%" y2="10%">
<stop stop-color="#daec00" offset="0"/>
<stop stop-color="#28f5e9" offset=".8"/>
</linearGradient>
</defs>
<path d="m198.86 0.285c-5.624 0.223-13.63 0.96-16 1.474-1.594 0.345-1.855 0.391-8 1.422-5.501 0.923-15.285 3.01-16.069 3.429-0.274 0.145-1.097 0.325-1.829 0.4-3.698 0.374-20.775 6.04-29.726 9.862-2.925 1.249-5.49 2.271-5.701 2.271-0.582 0-16.116 7.836-19.532 9.853-1.65 0.975-3.622 2.046-4.381 2.382-1.941 0.859-9.808 6.021-15.19 9.968-10.803 7.922-17.968 14.035-24.984 21.314-16.393 17.008-25.229 29.513-36.275 51.34-4.347 8.59-11.182 25.68-11.59 28.979-0.041 0.326-0.538 2.007-1.105 3.735-1.885 5.747-4.12 14.582-4.368 17.266-0.05 0.539-0.287 1.889-0.526 3-0.776 3.598-1.872 9.923-1.754 10.117 0.064 0.104-0.184 2.285-0.55 4.847-0.365 2.563-0.666 5.327-0.666 6.143-1e-3 0.817-0.129 2.834-0.284 4.484-0.429 4.576 0.063 28.758 0.675 33.143 0.076 0.55 0.326 2.479 0.555 4.286 0.843 6.655 1.332 9.871 1.586 10.429 0.143 0.314 0.4 1.6 0.569 2.857 0.17 1.257 0.486 2.8 0.701 3.428 0.216 0.629 0.549 2.043 0.741 3.143 0.191 1.1 0.509 2.398 0.706 2.884 0.198 0.486 0.505 1.579 0.684 2.429 0.178 0.849 0.69 2.766 1.137 4.259 0.447 1.492 0.948 3.228 1.114 3.857 0.547 2.078 2.892 8.844 3.326 9.594 0.234 0.406 0.885 2.006 1.446 3.556 1.165 3.219 1.237 3.38 4.527 10.135 2.474 5.082 4.456 8.578 7.224 12.747 0.847 1.274 1.539 2.408 1.539 2.52 0 0.356 2.636 3.971 3.912 5.364 0.677 0.74 1.231 1.46 1.231 1.601 0 0.466 9.552 9.978 10.5 10.457 0.511 0.258 0.929 0.571 0.929 0.697 0 0.263 2.208 1.757 2.597 1.757 0.143 0 0.26 0.129 0.26 0.286s0.137 0.286 0.304 0.286c0.168 0 0.727 0.321 1.242 0.714s1.085 0.714 1.266 0.714c0.182 0 0.331 0.108 0.331 0.241 0 0.29 3.312 1.935 4.464 2.218 0.452 0.11 0.886 0.29 0.964 0.4 0.079 0.109 1.75 0.73 3.714 1.379 6.328 2.093 12.399 2.569 20.286 1.591 0.55-0.068 1.707-0.191 2.572-0.273 0.864-0.082 2.342-0.35 3.285-0.595 2.213-0.575 2.706-0.695 3.572-0.869 1.167-0.233 6.388-1.826 6.924-2.113 0.273-0.145 0.687-0.264 0.919-0.264 0.233 0 0.845-0.179 1.361-0.397s1.646-0.692 2.51-1.052 2.5-1.082 3.635-1.603c1.135-0.522 2.135-0.948 2.222-0.948 0.471 0 9.878-4.617 12.857-6.31 1.415-0.804 3.086-1.73 3.715-2.059 0.628-0.328 1.993-1.151 3.032-1.829 1.039-0.677 2.014-1.231 2.167-1.231 0.152 0 1.011-0.514 1.909-1.143 0.897-0.628 1.736-1.143 1.863-1.143 0.128 0 0.829-0.456 1.559-1.013s1.327-0.943 1.327-0.858c0 0.144 2.568-1.62 4.331-2.974 0.417-0.321 0.88-0.583 1.027-0.583s0.5-0.257 0.785-0.572c0.284-0.314 0.667-0.571 0.851-0.571s0.637-0.322 1.006-0.714c0.369-0.393 0.819-0.715 1-0.715s0.631-0.321 1-0.714 0.777-0.714 0.907-0.714c0.129 0 2.261-1.651 4.736-3.667 2.475-2.017 6.428-5.127 8.785-6.911s4.749-3.637 5.315-4.118c0.566-0.482 1.594-1.345 2.286-1.918 2.73-2.265 4.365-3.679 6.227-5.386 0.428-0.393 1.459-1.293 2.29-2 0.832-0.707 2.072-1.8 2.757-2.429 0.685-0.628 2.247-2.064 3.471-3.19 1.224-1.127 2.547-2.324 2.94-2.662 0.949-0.816 4.363-3.895 5.708-5.148 0.59-0.55 1.883-1.707 2.873-2.571 3.697-3.227 4.886-4.295 8.398-7.551 0.617-0.572 1.893-1.711 2.837-2.53 0.943-0.82 1.981-1.748 2.307-2.063 0.325-0.315 1.315-1.151 2.199-1.857 0.885-0.707 3.199-2.685 5.143-4.396 4.515-3.973 4.738-4.162 6.106-5.178 0.629-0.466 1.336-1.048 1.572-1.293s0.868-0.752 1.405-1.128c0.537-0.375 2.161-1.655 3.609-2.843 1.448-1.189 2.917-2.354 3.265-2.59 0.347-0.236 0.864-0.621 1.149-0.857s0.8-0.621 1.143-0.857c0.344-0.236 0.902-0.651 1.241-0.923 0.339-0.273 0.745-0.596 0.902-0.72 0.157-0.123 1.057-0.726 2-1.339s2.486-1.717 3.429-2.454c0.943-0.736 1.993-1.485 2.335-1.664 0.341-0.179 0.799-0.504 1.017-0.722 0.219-0.219 0.924-0.666 1.568-0.995 0.643-0.328 1.214-0.712 1.268-0.853 0.053-0.142 0.74-0.598 1.526-1.015 1.857-0.985 5.674-3.313 5.857-3.573 0.242-0.342 4.75-2.853 9.271-5.164 2.365-1.208 4.558-2.34 4.872-2.514 1.321-0.732 8.482-4.064 8.734-4.064 0.15 0 0.497-0.116 0.77-0.257s1.075-0.479 1.782-0.753c0.707-0.273 1.671-0.661 2.143-0.863 1.326-0.567 7.5-2.67 9.571-3.26 1.021-0.291 3.461-0.996 5.42-1.567 1.96-0.571 4.017-1.109 4.572-1.197 0.554-0.088 1.085-0.207 1.18-0.265 0.145-0.089 3.783-0.828 8.399-1.706 1.496-0.284 1.408-0.272 5.715-0.821 2.043-0.261 4.057-0.534 4.476-0.607s1.769-0.191 3-0.263 3.395-0.211 4.809-0.309c5.601-0.389 15.164-0.53 20.143-0.297 1.493 0.07 4.836 0.213 7.429 0.318 6.212 0.251 8.599 0.352 12.686 0.539 4.062 0.186 11.407 0.202 13.6 0.03 2.229-0.174 4.667-0.462 4.847-0.572 0.084-0.052 0.642-0.171 1.24-0.266 0.598-0.094 1.466-0.368 1.929-0.607 0.462-0.239 0.841-0.352 0.841-0.252 0 0.101 0.321-0.027 0.714-0.285 0.393-0.257 0.714-0.392 0.714-0.3s0.515-0.121 1.143-0.474c0.629-0.354 1.143-0.769 1.143-0.924 0-0.154 0.084-0.197 0.186-0.094 0.102 0.102 0.488-0.141 0.857-0.539s0.671-0.634 0.671-0.523 0.265-0.108 0.589-0.485c0.324-0.378 0.835-0.974 1.136-1.324s0.629-0.961 0.728-1.357 0.281-0.72 0.404-0.72c0.122 0 0.313-0.482 0.423-1.072 0.11-0.589 0.33-1.228 0.489-1.42 1.037-1.256 0.304-19.49-0.86-21.365-0.097-0.157-0.517-1.572-0.933-3.143-1.258-4.76-4.166-13.853-4.523-14.143-0.097-0.079-0.478-1.107-0.848-2.286-0.37-1.178-1.226-3.364-1.902-4.857s-2.074-4.731-3.106-7.195c-1.553-3.707-7.978-16.804-8.734-17.805-0.119-0.157-0.795-1.378-1.503-2.714-2.131-4.021-3.968-7.259-4.39-7.737-0.219-0.248-0.398-0.524-0.398-0.614s-0.51-0.98-1.134-1.978c-0.623-0.998-1.555-2.5-2.071-3.338-0.516-0.839-1.071-1.739-1.233-2-0.162-0.262-0.805-1.231-1.428-2.155-0.624-0.923-1.265-1.887-1.424-2.143-1.084-1.734-2.123-3.216-3.057-4.361-0.595-0.728-1.082-1.402-1.082-1.495 0-0.264-3.166-4.31-3.456-4.417-0.142-0.053-0.258-0.228-0.258-0.39s-1.441-2.112-3.201-4.334c-2.783-3.51-4.276-5.237-9.021-10.44-3.427-3.756-11.145-11.255-15.489-15.049-0.706-0.617-1.454-1.281-1.664-1.478-0.209-0.196-0.474-0.357-0.588-0.357s-0.651-0.446-1.194-0.991c-0.542-0.545-1.074-0.995-1.183-1-0.108-5e-3 -0.622-0.407-1.143-0.893-0.52-0.486-1.46-1.212-2.089-1.613-0.628-0.401-1.721-1.206-2.428-1.789-0.707-0.582-1.8-1.398-2.429-1.813-1.457-0.961-5.043-3.496-5.463-3.861-0.176-0.154-1.076-0.701-2-1.216-0.924-0.516-1.744-1.009-1.822-1.096-1.414-1.566-17.225-9.704-26-13.382-2.268-0.951-11.452-4.236-13.143-4.701-0.55-0.152-1.129-0.377-1.286-0.501-1.368-1.078-18.483-5.037-27.714-6.411-3.833-0.571-10.283-1.317-11.391-1.319-0.492 0-5.974-0.047-12.181-0.104s-13.793-4e-3 -16.857 0.118" fill="url(#a)"/>
</svg>
