<?xml version="1.0" encoding="UTF-8"?>
<svg version="1.1" width="399" height="301"  viewBox="0 0 399 301" xmlns="http://www.w3.org/2000/svg">
<defs>
	        <linearGradient id="a" x1="0%" y1="0%" x2="100%" y2="0%">
	            <stop offset="0%" style="stop-color:#e3ff01;stop-opacity:1"></stop>
	            <stop offset="100%" style="stop-color:#fd6200;stop-opacity:1"></stop>
	        </linearGradient>
</defs>
<path d="m151.2 0.15c-0.539 0.041-3.676 0.271-6.971 0.511-50.507 3.673-96.106 28.889-121.72 67.313-4.503 6.753-11.82 20.725-14.547 27.778-10.662 27.569-10.297 56.248 0.945 74.173 6.999 11.161 17.393 17.827 32.938 21.124 2.332 0.495 4.453 0.946 4.713 1.003 7.026 1.545 33.914 0.081 46.259-2.518 1.618-0.34 4.51-0.863 6.427-1.162 1.918-0.298 5.741-1.031 8.497-1.628s5.452-1.153 5.991-1.235c1.256-0.192 7.816-1.636 11.292-2.485 1.475-0.36 3.827-0.858 5.227-1.108 1.399-0.249 3.966-0.783 5.704-1.187 1.737-0.404 4.727-1.045 6.645-1.423 1.917-0.378 6.083-1.216 9.259-1.863 6.22-1.265 19.941-3.636 23.311-4.028 1.139-0.132 4.227-0.523 6.863-0.869 35.961-4.717 65.458 1.181 86.946 17.385 17.642 13.303 29.203 29.432 48.055 67.041 15.483 30.888 21.137 39.068 29.874 43.22 13.207 6.276 28.952-9.934 41.895-43.133 3.278-8.407 8.135-26.417 8.896-32.985 0.07-0.599 0.418-3.344 0.774-6.1 4.637-35.891-3.967-70.601-25.006-100.87-20.4-29.351-42.591-51.496-71.935-71.786-8.446-5.839-12.367-8.158-25.817-15.266-18.623-9.841-30.498-14.728-48.148-19.815-2.037-0.588-4.292-1.272-5.011-1.521-2.75-0.953-16.16-4.017-20.044-4.579-0.958-0.139-2.821-0.482-4.139-0.763-2.143-0.457-8.49-1.382-11.983-1.746-0.719-0.075-2.434-0.28-3.812-0.456-6.925-0.881-25.32-1.479-31.373-1.02" fill="url(#a)"/>
</svg>
